<?xml version="1.0" standalone="no"?>
<svg xmlns:xlink="http://www.w3.org/1999/xlink" id="wave" style="transform:rotate(180deg); transition: 0.3s" viewBox="0 0 1440 490" version="1.1" xmlns="http://www.w3.org/2000/svg"><defs><linearGradient id="sw-gradient-0" x1="0" x2="0" y1="1" y2="0"><stop stop-color="rgba(22, 119, 255, 1)" offset="0%"/><stop stop-color="rgba(11, 213.673, 255, 0.22)" offset="100%"/></linearGradient></defs><path style="transform:translate(0, 0px); opacity:1" fill="url(#sw-gradient-0)" d="M0,0L34.3,57.2C68.6,114,137,229,206,245C274.3,261,343,180,411,122.5C480,65,549,33,617,16.3C685.7,0,754,0,823,57.2C891.4,114,960,229,1029,277.7C1097.1,327,1166,310,1234,269.5C1302.9,229,1371,163,1440,130.7C1508.6,98,1577,98,1646,114.3C1714.3,131,1783,163,1851,220.5C1920,278,1989,359,2057,326.7C2125.7,294,2194,147,2263,114.3C2331.4,82,2400,163,2469,196C2537.1,229,2606,212,2674,171.5C2742.9,131,2811,65,2880,32.7C2948.6,0,3017,0,3086,57.2C3154.3,114,3223,229,3291,236.8C3360,245,3429,147,3497,114.3C3565.7,82,3634,114,3703,106.2C3771.4,98,3840,49,3909,73.5C3977.1,98,4046,196,4114,253.2C4182.9,310,4251,327,4320,294C4388.6,261,4457,180,4526,138.8C4594.3,98,4663,98,4731,147C4800,196,4869,294,4903,343L4937.1,392L4937.1,490L4902.9,490C4868.6,490,4800,490,4731,490C4662.9,490,4594,490,4526,490C4457.1,490,4389,490,4320,490C4251.4,490,4183,490,4114,490C4045.7,490,3977,490,3909,490C3840,490,3771,490,3703,490C3634.3,490,3566,490,3497,490C3428.6,490,3360,490,3291,490C3222.9,490,3154,490,3086,490C3017.1,490,2949,490,2880,490C2811.4,490,2743,490,2674,490C2605.7,490,2537,490,2469,490C2400,490,2331,490,2263,490C2194.3,490,2126,490,2057,490C1988.6,490,1920,490,1851,490C1782.9,490,1714,490,1646,490C1577.1,490,1509,490,1440,490C1371.4,490,1303,490,1234,490C1165.7,490,1097,490,1029,490C960,490,891,490,823,490C754.3,490,686,490,617,490C548.6,490,480,490,411,490C342.9,490,274,490,206,490C137.1,490,69,490,34,490L0,490Z"/></svg>